grf
version=1
nRows=9
nColumns=37
inDegrees=no
endheader
time	ground_force_1_vx	ground_force_1_vy	ground_force_1_vz	ground_force_1_px	ground_force_1_py	ground_force_1_pz	ground_moment_1_mx	ground_moment_1_my	ground_moment_1_mz	ground_force_2_vx	ground_force_2_vy	ground_force_2_vz	ground_force_2_px	ground_force_2_py	ground_force_2_pz	ground_moment_2_mx	ground_moment_2_my	ground_moment_2_mz	ground_force_3_vx	ground_force_3_vy	ground_force_3_vz	ground_force_3_px	ground_force_3_py	ground_force_3_pz	ground_moment_3_mx	ground_moment_3_my	ground_moment_3_mz	ground_force_4_vx	ground_force_4_vy	ground_force_4_vz	ground_force_4_px	ground_force_4_py	ground_force_4_pz	ground_moment_4_mx	ground_moment_4_my	ground_moment_4_mz
      4.49000000	      0.00000000	     -0.00000000	      0.00000000	      0.00000000	      0.00000000	      0.00000000	      0.00000000	      0.00000000	      0.00000000	      6.61388445	     71.89033508	   -439.10415649	   -289.41577065	  -1203.91486232	      0.00000000	      0.00000000	      0.00000000	   2867.11783938	     -7.89526677	    -79.03492668	   -459.03683472	   -285.07335410	   -585.94870983	      0.00000000	      0.00000000	     -0.00000000	  -7065.96332077	      0.00000000	     -0.00000000	      0.00000000	      0.00000000	      0.00000000	      0.00000000	      0.00000000	      0.00000000	      0.00000000
      4.50000000	      0.00000000	     -0.00000000	      0.00000000	      0.00000000	      0.00000000	      0.00000000	      0.00000000	      0.00000000	      0.00000000	      7.15065765	     71.76377869	   -438.59481812	   -289.24019476	  -1204.39701716	      0.00000000	      0.00000000	      0.00000000	   2781.12050981	     -7.65469427	    -78.52995996	   -456.39440918	   -284.19431894	   -585.65876735	      0.00000000	     -0.00000000	     -0.00000000	  -6971.26231301	      0.00000000	     -0.00000000	      0.00000000	      0.00000000	      0.00000000	      0.00000000	      0.00000000	      0.00000000	      0.00000000
      4.51000000	      0.00000000	     -0.00000000	      0.00000000	      0.00000000	      0.00000000	      0.00000000	      0.00000000	      0.00000000	      0.00000000	      7.25192213	     71.74996948	   -437.04251099	   -288.55689456	  -1204.62544664	      0.00000000	     -0.00000000	      0.00000000	   2711.69878148	     -7.90695870	    -77.74636772	   -455.39474487	   -284.09987580	   -585.07096161	      0.00000000	      0.00000000	     -0.00000000	  -6866.30305114	      0.00000000	     -0.00000000	      0.00000000	      0.00000000	      0.00000000	      0.00000000	      0.00000000	      0.00000000	      0.00000000
      4.52000000	      0.00000000	     -0.00000000	      0.00000000	      0.00000000	      0.00000000	      0.00000000	      0.00000000	      0.00000000	      0.00000000	      7.54564619	     71.63833618	   -435.86865234	   -288.68042444	  -1204.49658492	      0.00000000	      0.00000000	      0.00000000	   2561.00831398	     -7.30007468	    -77.55775388	   -454.59539795	   -284.67114329	   -585.61674179	      0.00000000	      0.00000000	     -0.00000000	  -6961.48998436	      0.00000000	     -0.00000000	      0.00000000	      0.00000000	      0.00000000	      0.00000000	      0.00000000	      0.00000000	      0.00000000
      4.53000000	      0.00000000	     -0.00000000	      0.00000000	      0.00000000	      0.00000000	      0.00000000	      0.00000000	      0.00000000	      0.00000000	      7.51340294	     71.87603760	   -434.61816406	   -288.84588888	  -1203.66218327	      0.00000000	      0.00000000	      0.00000000	   2616.96157891	     -6.17289840	    -77.62387031	   -454.59539795	   -284.48548174	   -585.47955766	      0.00000000	      0.00000000	     -0.00000000	  -7022.37122849	      0.00000000	     -0.00000000	      0.00000000	      0.00000000	      0.00000000	      0.00000000	      0.00000000	      0.00000000	      0.00000000
      4.54000000	      0.00000000	     -0.00000000	      0.00000000	      0.00000000	      0.00000000	      0.00000000	      0.00000000	      0.00000000	      0.00000000	      7.34150696	     71.97021484	   -435.63720703	   -288.59063647	  -1203.91126840	      0.00000000	      0.00000000	      0.00000000	   2520.50473487	     -6.03234011	    -77.01650948	   -455.39620972	   -285.12742448	   -585.71412011	      0.00000000	      0.00000000	     -0.00000000	  -6946.71272938	      0.00000000	     -0.00000000	      0.00000000	      0.00000000	      0.00000000	      0.00000000	      0.00000000	      0.00000000	      0.00000000
      4.55000000	      0.00000000	     -0.00000000	      0.00000000	      0.00000000	      0.00000000	      0.00000000	      0.00000000	      0.00000000	      0.00000000	      7.76131439	     72.09635162	   -434.93298340	   -288.77896901	  -1203.64658736	      0.00000000	     -0.00000000	      0.00000000	   2675.45788573	     -5.82311441	    -76.48658702	   -453.81640625	   -284.68884334	   -585.65809201	      0.00000000	     -0.00000000	     -0.00000000	  -6958.30280962	      0.00000000	     -0.00000000	      0.00000000	      0.00000000	      0.00000000	      0.00000000	      0.00000000	      0.00000000	      0.00000000
      4.56000000	      0.00000000	     -0.00000000	      0.00000000	      0.00000000	      0.00000000	      0.00000000	      0.00000000	      0.00000000	      0.00000000	      7.77111435	     72.04380798	   -436.25485229	   -289.29336989	  -1203.86415446	      0.00000000	      0.00000000	      0.00000000	   2604.41048909	     -5.63486192	    -76.08099316	   -452.46151733	   -284.86353171	   -586.40751882	      0.00000000	      0.00000000	     -0.00000000	  -6897.90945727	      0.00000000	     -0.00000000	      0.00000000	      0.00000000	      0.00000000	      0.00000000	      0.00000000	      0.00000000	      0.00000000
      4.57000000	      0.00000000	     -0.00000000	      0.00000000	      0.00000000	      0.00000000	      0.00000000	      0.00000000	      0.00000000	      0.00000000	      7.47644758	     72.38325500	   -435.86117554	   -289.14594464	  -1204.19906494	      0.00000000	      0.00000000	      0.00000000	   2681.98845942	     -5.37547301	    -76.16699935	   -453.83050537	   -285.16119208	   -585.69020025	      0.00000000	      0.00000000	     -0.00000000	  -7041.92332283	      0.00000000	     -0.00000000	      0.00000000	      0.00000000	      0.00000000	      0.00000000	      0.00000000	      0.00000000	      0.00000000
